<svg width="20" height="20" viewBox="0 0 20 20" fill="none" xmlns="http://www.w3.org/2000/svg">
<path fill-rule="evenodd" clip-rule="evenodd" d="M4.63279 11.509L3.11133 10.059L4.68053 8.56353L6.20199 10.0135L4.63279 11.509ZM12.8855 8.91148L10.1228 6.27781L7.35834 8.91148L5.83688 7.46151L10.1103 3.38892L10.1223 3.39996L10.1336 3.38892L14.407 7.46151L12.8855 8.91148ZM10.1124 16.6111L10.101 16.5998L10.0891 16.6111L5.81567 12.5385L7.33713 11.0886L10.101 13.7224L12.8643 11.0886L14.3858 12.5385L10.1124 16.6111ZM10.0991 11.5545L8.57768 10.1045L10.1469 8.60903L11.6683 10.059L10.0991 11.5545ZM15.5421 11.4365L14.0207 9.98655L15.5899 8.49108L17.1113 9.94106L15.5421 11.4365Z" fill="#F3B92F"/>
</svg>
