<svg width="12" height="12" viewBox="0 0 12 12" fill="none" xmlns="http://www.w3.org/2000/svg">
<path d="M9 5.375C8.795 5.375 8.625 5.205 8.625 5V4C8.625 2.425 8.18 1.375 6 1.375C3.82 1.375 3.375 2.425 3.375 4V5C3.375 5.205 3.205 5.375 3 5.375C2.795 5.375 2.625 5.205 2.625 5V4C2.625 2.55 2.975 0.625 6 0.625C9.025 0.625 9.375 2.55 9.375 4V5C9.375 5.205 9.205 5.375 9 5.375Z" fill="#FF9C08"/>
<path d="M6 9.625C5.105 9.625 4.375 8.895 4.375 8C4.375 7.105 5.105 6.375 6 6.375C6.895 6.375 7.625 7.105 7.625 8C7.625 8.895 6.895 9.625 6 9.625ZM6 7.125C5.52 7.125 5.125 7.52 5.125 8C5.125 8.48 5.52 8.875 6 8.875C6.48 8.875 6.875 8.48 6.875 8C6.875 7.52 6.48 7.125 6 7.125Z" fill="#FF9C08"/>
<path d="M8.5 11.375H3.5C1.295 11.375 0.625 10.705 0.625 8.5V7.5C0.625 5.295 1.295 4.625 3.5 4.625H8.5C10.705 4.625 11.375 5.295 11.375 7.5V8.5C11.375 10.705 10.705 11.375 8.5 11.375ZM3.5 5.375C1.71 5.375 1.375 5.715 1.375 7.5V8.5C1.375 10.285 1.71 10.625 3.5 10.625H8.5C10.29 10.625 10.625 10.285 10.625 8.5V7.5C10.625 5.715 10.29 5.375 8.5 5.375H3.5Z" fill="#FF9C08"/>
</svg>
